<svg width="367" height="96" viewBox="0 0 367 96" fill="none" xmlns="http://www.w3.org/2000/svg">
<path d="M6.39569 20.879C9.01381 15.8393 22.7494 3.61682 33.8339 1.24179C38.8029 0.177106 40.6241 2.9241 40.8543 6.92374C63.2756 9.51482 84.2135 28.3991 89.0166 51.3103C90.3158 57.5077 90.3109 63.4105 89.1901 68.7758L94.6614 68.6895C92.0407 75.8619 83.3235 90.8688 62.7993 95.1722C62.0184 95.336 61.2386 95.4657 60.4606 95.5631C58.5025 95.851 56.4713 95.9999 54.3747 95.9999C30.0683 95.9999 6.16958 75.9917 0.995382 51.3103C-1.46924 39.5538 0.759094 28.8576 6.39569 20.879Z" fill="#6734B9"/>
<ellipse cx="43.2139" cy="45.2383" rx="43.2139" ry="45.2383" transform="matrix(1 0 0.205179 0.978724 0.830078 0)" fill="#8034FA"/>
<ellipse cx="33.9402" cy="35.5142" rx="33.9402" ry="35.5142" transform="matrix(1 0 0.205179 0.978724 13.0176 7.44824)" fill="white"/>
<ellipse cx="25.1215" cy="25.6606" rx="25.1215" ry="25.6606" transform="matrix(1 0 0.205179 0.978724 24.7363 15.9775)" fill="#8034FA"/>
<circle cx="16.0975" cy="16.0975" r="16.0975" transform="matrix(1 0 0.205179 0.978724 37.249 24.2964)" fill="white"/>
<circle cx="7.94475" cy="7.94475" r="7.94475" transform="matrix(1 0 0.205179 0.978724 47.0752 32.2759)" fill="#111827"/>
<path d="M139.228 67.2045H126.822C126.27 67.2045 125.822 66.7568 125.822 66.2045V30.3863C125.822 29.834 126.27 29.3863 126.822 29.3863H139.339C143.143 29.3863 146.418 30.1434 149.163 31.6576C151.908 33.1595 154.019 35.32 155.497 38.1392C156.986 40.9583 157.731 44.3314 157.731 48.2585C157.731 52.1979 156.986 55.5833 155.497 58.4147C154.019 61.2462 151.896 63.419 149.126 64.9332C146.368 66.4474 143.069 67.2045 139.228 67.2045ZM133.818 59.3537C133.818 59.9059 134.265 60.3537 134.818 60.3537H138.896C141.259 60.3537 143.248 59.9351 144.86 59.098C146.485 58.2485 147.704 56.9375 148.517 55.1647C149.341 53.3797 149.754 51.0776 149.754 48.2585C149.754 45.464 149.341 43.1804 148.517 41.4076C147.704 39.6349 146.491 38.33 144.879 37.4929C143.266 36.6557 141.278 36.2372 138.914 36.2372H134.818C134.265 36.2372 133.818 36.6849 133.818 37.2372V59.3537Z" fill="#111827"/>
<path d="M171.594 67.74C169.785 67.74 168.172 67.4261 166.756 66.7983C165.34 66.1581 164.22 65.2163 163.395 63.973C162.583 62.7173 162.177 61.1538 162.177 59.2826C162.177 57.7069 162.466 56.3835 163.045 55.3125C163.623 54.2414 164.411 53.3797 165.408 52.7272C166.405 52.0748 167.538 51.5823 168.806 51.25C170.086 50.9176 171.428 50.6837 172.831 50.5483C174.481 50.3759 175.811 50.2159 176.82 50.0681C177.83 49.9081 178.562 49.6742 179.018 49.3664C179.473 49.0587 179.701 48.6032 179.701 48V47.8892C179.701 46.7197 179.331 45.8148 178.593 45.1747C177.867 44.5345 176.832 44.2144 175.491 44.2144C174.075 44.2144 172.948 44.5284 172.111 45.1562C171.512 45.5968 171.058 46.1194 170.749 46.7241C170.532 47.1474 170.109 47.4553 169.635 47.4168L164.309 46.9842C163.708 46.9354 163.282 46.3662 163.468 45.7919C163.879 44.5265 164.507 43.4036 165.353 42.4233C166.436 41.1553 167.833 40.1827 169.545 39.5056C171.268 38.8162 173.262 38.4715 175.528 38.4715C177.103 38.4715 178.611 38.6562 180.052 39.0255C181.504 39.3948 182.791 39.9673 183.911 40.7429C185.044 41.5184 185.936 42.5156 186.589 43.7343C187.241 44.9408 187.567 46.3873 187.567 48.0738V66.2045C187.567 66.7568 187.12 67.2045 186.567 67.2045H181.107C180.555 67.2045 180.107 66.7568 180.107 66.2045V63.4089C180.107 63.3329 180.045 63.2713 179.969 63.2713V63.2713C179.918 63.2713 179.871 63.3002 179.847 63.3458C179.396 64.2015 178.799 64.9584 178.057 65.6164C177.294 66.2812 176.377 66.8044 175.306 67.186C174.235 67.5554 172.998 67.74 171.594 67.74ZM173.847 62.311C175.004 62.311 176.026 62.0833 176.912 61.6278C177.799 61.16 178.494 60.5322 178.999 59.7443C179.504 58.9564 179.756 58.0639 179.756 57.0667V55.1681C179.756 54.6896 179.197 54.3565 178.741 54.5V54.5C178.322 54.6231 177.848 54.74 177.319 54.8508C176.789 54.9493 176.26 55.0416 175.731 55.1278C175.201 55.2017 174.721 55.2694 174.29 55.3309C173.367 55.4663 172.561 55.6818 171.871 55.9772C171.182 56.2727 170.646 56.6728 170.265 57.1775C169.883 57.6699 169.692 58.2855 169.692 59.0241C169.692 60.0951 170.08 60.9138 170.856 61.4801C171.644 62.034 172.641 62.311 173.847 62.311Z" fill="#111827"/>
<path d="M207.757 38.8409C208.309 38.8409 208.757 39.2886 208.757 39.8409V43.75C208.757 44.3022 208.309 44.75 207.757 44.75H192.676C192.124 44.75 191.676 44.3022 191.676 43.75V39.8409C191.676 39.2886 192.124 38.8409 192.676 38.8409H207.757ZM195.554 33.0454C195.554 32.4931 196.002 32.0454 196.554 32.0454H202.42C202.973 32.0454 203.42 32.4931 203.42 33.0454V58.4886C203.42 59.2149 203.531 59.7812 203.753 60.1875C203.974 60.5814 204.282 60.8584 204.676 61.0184C205.082 61.1785 205.55 61.2585 206.079 61.2585C206.449 61.2585 206.818 61.2277 207.187 61.1662V61.1662C207.659 61.0718 208.116 61.376 208.216 61.8468L209.086 65.9637C209.192 66.4682 208.897 66.9698 208.397 67.094C208.161 67.1525 207.9 67.2139 207.612 67.2784C206.898 67.4507 206.03 67.5554 205.008 67.5923C203.112 67.6662 201.451 67.4138 200.023 66.8352C198.607 66.2566 197.505 65.3579 196.717 64.1392C195.929 62.9204 195.541 61.3816 195.554 59.5227V33.0454Z" fill="#111827"/>
<path d="M221.969 67.74C220.16 67.74 218.547 67.4261 217.131 66.7983C215.715 66.1581 214.595 65.2163 213.77 63.973C212.958 62.7173 212.552 61.1538 212.552 59.2826C212.552 57.7069 212.841 56.3835 213.42 55.3125C213.998 54.2414 214.786 53.3797 215.783 52.7272C216.78 52.0748 217.913 51.5823 219.181 51.25C220.461 50.9176 221.803 50.6837 223.206 50.5483C224.856 50.3759 226.186 50.2159 227.195 50.0681C228.205 49.9081 228.937 49.6742 229.393 49.3664C229.848 49.0587 230.076 48.6032 230.076 48V47.8892C230.076 46.7197 229.706 45.8148 228.968 45.1747C228.242 44.5345 227.207 44.2144 225.866 44.2144C224.45 44.2144 223.323 44.5284 222.486 45.1562C221.887 45.5968 221.433 46.1194 221.124 46.7241C220.907 47.1474 220.484 47.4553 220.01 47.4168L214.684 46.9842C214.083 46.9354 213.657 46.3662 213.843 45.7919C214.254 44.5265 214.882 43.4036 215.728 42.4233C216.811 41.1553 218.208 40.1827 219.92 39.5056C221.643 38.8162 223.637 38.4715 225.903 38.4715C227.478 38.4715 228.986 38.6562 230.427 39.0255C231.879 39.3948 233.166 39.9673 234.286 40.7429C235.419 41.5184 236.311 42.5156 236.964 43.7343C237.616 44.9408 237.942 46.3873 237.942 48.0738V66.2045C237.942 66.7568 237.495 67.2045 236.942 67.2045H231.482C230.93 67.2045 230.482 66.7568 230.482 66.2045V63.4089C230.482 63.3329 230.42 63.2713 230.344 63.2713V63.2713C230.293 63.2713 230.246 63.3002 230.222 63.3458C229.771 64.2015 229.174 64.9584 228.432 65.6164C227.669 66.2812 226.752 66.8044 225.681 67.186C224.61 67.5554 223.373 67.74 221.969 67.74ZM224.222 62.311C225.379 62.311 226.401 62.0833 227.287 61.6278C228.174 61.16 228.869 60.5322 229.374 59.7443C229.879 58.9564 230.131 58.0639 230.131 57.0667V55.1681C230.131 54.6896 229.572 54.3565 229.116 54.5V54.5C228.697 54.6231 228.223 54.74 227.694 54.8508C227.164 54.9493 226.635 55.0416 226.106 55.1278C225.576 55.2017 225.096 55.2694 224.665 55.3309C223.742 55.4663 222.936 55.6818 222.246 55.9772C221.557 56.2727 221.021 56.6728 220.64 57.1775C220.258 57.6699 220.067 58.2855 220.067 59.0241C220.067 60.0951 220.455 60.9138 221.231 61.4801C222.019 62.034 223.016 62.311 224.222 62.311Z" fill="#111827"/>
<path d="M257.156 67.2045H246.486C245.933 67.2045 245.486 66.7568 245.486 66.2045V30.3863C245.486 29.834 245.933 29.3863 246.486 29.3863H257.673C261.342 29.3863 264.481 30.1434 267.091 31.6576C269.701 33.1595 271.701 35.32 273.092 38.1392C274.483 40.946 275.179 44.3068 275.179 48.2215C275.179 52.1609 274.477 55.5525 273.074 58.3963C271.67 61.2277 269.627 63.4067 266.943 64.9332C264.259 66.4474 260.997 67.2045 257.156 67.2045ZM250.065 62.142C250.065 62.6943 250.513 63.142 251.065 63.142H256.861C259.988 63.142 262.579 62.5388 264.635 61.3323C266.691 60.1259 268.223 58.4086 269.233 56.1804C270.242 53.9521 270.747 51.2992 270.747 48.2215C270.747 45.1685 270.248 42.5402 269.251 40.3366C268.254 38.1207 266.764 36.4218 264.782 35.24C262.8 34.0459 260.332 33.4488 257.378 33.4488H251.065C250.513 33.4488 250.065 33.8965 250.065 34.4488V62.142Z" fill="#111827"/>
<path d="M283.27 67.2045C282.717 67.2045 282.27 66.7568 282.27 66.2045V39.8409C282.27 39.2886 282.717 38.8409 283.27 38.8409H285.628C286.18 38.8409 286.628 39.2886 286.628 39.8409V66.2045C286.628 66.7568 286.18 67.2045 285.628 67.2045H283.27ZM284.486 34.1136C283.636 34.1136 282.904 33.8243 282.288 33.2457C281.685 32.6671 281.383 31.9715 281.383 31.159C281.383 30.3465 281.685 29.651 282.288 29.0724C282.904 28.4938 283.636 28.2045 284.486 28.2045C285.335 28.2045 286.061 28.4938 286.665 29.0724C287.28 29.651 287.588 30.3465 287.588 31.159C287.588 31.9715 287.28 32.6671 286.665 33.2457C286.061 33.8243 285.335 34.1136 284.486 34.1136Z" fill="#111827"/>
<path d="M316.367 38.8409C317.063 38.8409 317.546 39.5347 317.305 40.1877L307.556 66.5513C307.41 66.9439 307.036 67.2045 306.618 67.2045H303.579C303.16 67.2045 302.786 66.9439 302.641 66.5513L292.892 40.1877C292.65 39.5347 293.133 38.8409 293.83 38.8409H296.409C296.835 38.8409 297.214 39.1109 297.354 39.5135L304.902 61.3035C304.931 61.3871 305.01 61.4431 305.098 61.4431V61.4431C305.187 61.4431 305.265 61.3871 305.294 61.3036L312.842 39.5135C312.982 39.1109 313.361 38.8409 313.787 38.8409H316.367Z" fill="#111827"/>
<path d="M334.431 67.7954C331.698 67.7954 329.341 67.1922 327.359 65.9858C325.389 64.767 323.869 63.0681 322.798 60.8892C321.739 58.6979 321.21 56.1496 321.21 53.2443C321.21 50.339 321.739 47.7784 322.798 45.5625C323.869 43.3342 325.358 41.5984 327.266 40.3551C329.187 39.0994 331.427 38.4715 333.988 38.4715C335.465 38.4715 336.924 38.7178 338.365 39.2102C339.805 39.7026 341.116 40.5028 342.298 41.6108C343.48 42.7064 344.421 44.159 345.123 45.9687C345.825 47.7784 346.176 50.0066 346.176 52.6534V53.5C346.176 54.0522 345.728 54.5 345.176 54.5H325.312C324.76 54.5 324.312 54.0522 324.312 53.5V51.7329C324.312 51.1806 324.76 50.7329 325.312 50.7329H340.744C341.296 50.7329 341.749 50.2842 341.7 49.7341C341.593 48.5322 341.287 47.4371 340.784 46.4488C340.156 45.1931 339.257 44.2021 338.088 43.4758C336.93 42.7495 335.564 42.3863 333.988 42.3863C332.252 42.3863 330.75 42.8172 329.482 43.6789C328.227 44.5284 327.26 45.6363 326.583 47.0028C325.906 48.3693 325.568 49.8342 325.568 51.3977V53.909C325.568 56.0511 325.937 57.8669 326.676 59.3565C327.427 60.8338 328.467 61.9602 329.796 62.7358C331.126 63.499 332.671 63.8806 334.431 63.8806C335.576 63.8806 336.61 63.7206 337.534 63.4005C338.469 63.0681 339.275 62.5757 339.953 61.9233C340.428 61.4569 340.827 60.9118 341.15 60.2879C341.389 59.8269 341.906 59.5567 342.406 59.697L344.743 60.3529C345.285 60.5051 345.6 61.0774 345.376 61.5941C344.928 62.6305 344.302 63.565 343.498 64.3977C342.452 65.4687 341.159 66.3058 339.62 66.909C338.081 67.5 336.352 67.7954 334.431 67.7954Z" fill="#111827"/>
<path d="M353.805 67.2045C353.253 67.2045 352.805 66.7568 352.805 66.2045V39.8409C352.805 39.2886 353.253 38.8409 353.805 38.8409H356.015C356.567 38.8409 357.015 39.2886 357.015 39.8409V42.9509C357.015 43.047 357.093 43.125 357.189 43.125V43.125C357.262 43.125 357.327 43.0794 357.354 43.0114C357.879 41.66 358.8 40.5591 360.117 39.7088C361.472 38.8347 362.998 38.3977 364.697 38.3977C365.017 38.3977 365.417 38.4038 365.897 38.4162C365.961 38.4178 366.023 38.4195 366.083 38.4214C366.597 38.4374 366.987 38.8628 366.987 39.3765V41.8739C366.987 42.3968 366.489 42.8094 365.971 42.7372V42.7372C365.454 42.651 364.906 42.6079 364.328 42.6079C362.949 42.6079 361.718 42.8972 360.634 43.4758C359.563 44.0421 358.714 44.83 358.086 45.8394C357.471 46.8366 357.163 47.9753 357.163 49.2556V66.2045C357.163 66.7568 356.715 67.2045 356.163 67.2045H353.805Z" fill="#111827"/>
</svg>
